<svg xmlns="http://www.w3.org/2000/svg" xmlns:xlink="http://www.w3.org/1999/xlink" viewBox="0 0 780 506.81"><defs><style>.cls-1{fill:#1a1a1a;}.cls-2{fill:#2b2b2b;}.cls-3{fill:#ff5f56;stroke:#e0443e;}.cls-3,.cls-4,.cls-5{stroke-width:0.5px;}.cls-4{fill:#ffbd2e;stroke:#dea123;}.cls-5{fill:#27c93f;stroke:#1aab29;}.cls-6{fill:url(#linear-gradient);}.cls-7{fill:#e06c75;}.cls-8{fill:#abb2bf;}.cls-9{fill:#56b6c2;}.cls-10{fill:#98c379;}.cls-11{fill:#fff;}.cls-12{fill:#4d8fad;}</style><linearGradient id="linear-gradient" y1="60.27" x2="780" y2="60.27" gradientUnits="userSpaceOnUse"><stop offset="0" stop-color="#1a1a1a"/><stop offset="0.5" stop-color="#111013"/><stop offset="1" stop-color="#1a1a1a"/></linearGradient></defs><g id="Layer_2" data-name="Layer 2"><rect class="cls-1" width="780" height="506.81" rx="20"/><rect class="cls-2" y="61.77" width="169.31" height="34.13"/><circle class="cls-3" cx="27.93" cy="29.44" r="10"/><circle class="cls-4" cx="62.93" cy="29.44" r="10"/><circle class="cls-5" cx="96.93" cy="29.44" r="10"/><rect class="cls-6" y="58.77" width="780" height="3"/><path class="cls-7" d="M58.53,137.63a4.79,4.79,0,0,1-3.64-1.36,5.3,5.3,0,0,1-1.29-3.8,5.41,5.41,0,0,1,1.28-3.82,4.68,4.68,0,0,1,3.57-1.37,6.41,6.41,0,0,1,3,.75v2.36a3.79,3.79,0,0,0-2.58-1,2.45,2.45,0,0,0-2,.8,4.13,4.13,0,0,0,0,4.54,2.41,2.41,0,0,0,2,.79,3.72,3.72,0,0,0,2.61-1v2.37A5.8,5.8,0,0,1,58.53,137.63Z"/><path class="cls-7" d="M68.55,137.63a4.52,4.52,0,0,1-2.42-.63,4.06,4.06,0,0,1-1.58-1.79,7.1,7.1,0,0,1,0-5.48,4.24,4.24,0,0,1,1.59-1.8,4.63,4.63,0,0,1,2.45-.63,4.46,4.46,0,0,1,2.41.62,4.09,4.09,0,0,1,1.56,1.77,6.18,6.18,0,0,1,.55,2.73,6.44,6.44,0,0,1-.56,2.78A4.15,4.15,0,0,1,71,137,4.5,4.5,0,0,1,68.55,137.63Zm0-2.09a1.65,1.65,0,0,0,1.44-.83,5,5,0,0,0,0-4.5,1.64,1.64,0,0,0-1.44-.82,1.63,1.63,0,0,0-1.45.83,4.94,4.94,0,0,0,0,4.49A1.65,1.65,0,0,0,68.56,135.54Z"/><path class="cls-7" d="M75.48,127.53h2.31L78,129a2.34,2.34,0,0,1,.94-1.27,2.79,2.79,0,0,1,1.61-.44,2.44,2.44,0,0,1,2.08.94,4.45,4.45,0,0,1,.71,2.75v6.39H80.83v-6a2.92,2.92,0,0,0-.3-1.51,1,1,0,0,0-.91-.48,1.31,1.31,0,0,0-1.16.63,3.08,3.08,0,0,0-.42,1.72v5.64H75.48Z"/><path class="cls-7" d="M90.16,137.63a12.72,12.72,0,0,1-3.68-.61v-2.25a6.92,6.92,0,0,0,3.47,1c1.21,0,1.81-.36,1.81-1.07a.89.89,0,0,0-.43-.77,4.66,4.66,0,0,0-1.47-.51l-.71-.16c-1.89-.42-2.83-1.39-2.83-2.9a2.66,2.66,0,0,1,1.05-2.26,5,5,0,0,1,3-.79,8.78,8.78,0,0,1,1.53.13,9.85,9.85,0,0,1,1.57.41v2.25a6.33,6.33,0,0,0-1.48-.7,4.78,4.78,0,0,0-1.46-.22,2.93,2.93,0,0,0-1.35.25.77.77,0,0,0-.48.69.82.82,0,0,0,.45.68,4.62,4.62,0,0,0,1.44.51l.83.21a3.87,3.87,0,0,1,2.06,1.07,2.81,2.81,0,0,1,.66,1.95C94.19,136.6,92.84,137.63,90.16,137.63Z"/><path class="cls-7" d="M101.06,137.63a4.52,4.52,0,0,1-2.42-.63,4.12,4.12,0,0,1-1.58-1.79,7.1,7.1,0,0,1,0-5.48,4.19,4.19,0,0,1,1.6-1.8,4.57,4.57,0,0,1,2.44-.63,4.46,4.46,0,0,1,2.41.62,4,4,0,0,1,1.56,1.77,6.18,6.18,0,0,1,.55,2.73,6.44,6.44,0,0,1-.56,2.78,4.19,4.19,0,0,1-1.57,1.8A4.53,4.53,0,0,1,101.06,137.63Zm0-2.09a1.65,1.65,0,0,0,1.44-.83,5,5,0,0,0,0-4.5,1.68,1.68,0,0,0-2.89,0,4.94,4.94,0,0,0,0,4.49A1.66,1.66,0,0,0,101.07,135.54Z"/><path class="cls-7" d="M113.41,137.45a3.21,3.21,0,0,1-2.63-1,4.85,4.85,0,0,1-.81-3.14v-7.66h-2.61v-2h5.19v9.64a2.86,2.86,0,0,0,.36,1.64,1.41,1.41,0,0,0,1.22.49h2.06v2Z"/><path class="cls-7" d="M123.23,137.63a5.28,5.28,0,0,1-3.87-1.31,5.15,5.15,0,0,1-1.32-3.8,6.52,6.52,0,0,1,.54-2.75,4.08,4.08,0,0,1,1.64-1.82,5.15,5.15,0,0,1,2.72-.65,4.19,4.19,0,0,1,2.32.62,4.12,4.12,0,0,1,1.53,1.74,5.83,5.83,0,0,1,.54,2.58v1h-6.67c0,1.53.9,2.3,2.69,2.3a7,7,0,0,0,3.57-1.06v2.36A9.5,9.5,0,0,1,123.23,137.63Zm1.51-6.27a2.19,2.19,0,0,0-.5-1.55,1.91,1.91,0,0,0-1.44-.52,2,2,0,0,0-1.48.54,2.35,2.35,0,0,0-.63,1.53Z"/><path class="cls-8" d="M133.53,137.75a1.43,1.43,0,0,1-.6-.12,1.45,1.45,0,0,1-.48-.34,1.55,1.55,0,0,1-.46-1.15,1.57,1.57,0,0,1,.46-1.18,1.46,1.46,0,0,1,1.09-.45,1.51,1.51,0,0,1,1.11.45,1.59,1.59,0,0,1,.45,1.18,1.56,1.56,0,0,1-1.57,1.61Z"/><path class="cls-9" d="M145.92,137.45a3.21,3.21,0,0,1-2.63-1,4.85,4.85,0,0,1-.81-3.14v-7.66h-2.61v-2h5.19v9.64a2.86,2.86,0,0,0,.36,1.64,1.42,1.42,0,0,0,1.22.49h2.06v2Z"/><path class="cls-9" d="M155.24,137.63a4.55,4.55,0,0,1-2.42-.63,4.12,4.12,0,0,1-1.58-1.79,6.41,6.41,0,0,1-.55-2.74,6.29,6.29,0,0,1,.56-2.74,4.11,4.11,0,0,1,1.59-1.8,4.6,4.6,0,0,1,2.45-.63,4.48,4.48,0,0,1,2.41.62,4.09,4.09,0,0,1,1.56,1.77,6.33,6.33,0,0,1,.55,2.73,6.44,6.44,0,0,1-.56,2.78,4.15,4.15,0,0,1-1.58,1.8A4.53,4.53,0,0,1,155.24,137.63Zm0-2.09a1.63,1.63,0,0,0,1.44-.83,5,5,0,0,0,0-4.5,1.68,1.68,0,0,0-2.89,0,5,5,0,0,0,0,4.49A1.66,1.66,0,0,0,155.25,135.54Z"/><path class="cls-9" d="M165.79,141.1a10.94,10.94,0,0,1-3.23-.48v-2.36a6.12,6.12,0,0,0,3,.79,2.33,2.33,0,0,0,1.67-.51,2.17,2.17,0,0,0,.52-1.61v-1.07a2.6,2.6,0,0,1-2.49,1.39,3.41,3.41,0,0,1-1.75-.42,3.25,3.25,0,0,1-1.13-1.14,5.07,5.07,0,0,1-.63-1.57,7.8,7.8,0,0,1-.19-1.74,8.89,8.89,0,0,1,.18-1.75,6.57,6.57,0,0,1,.6-1.66,3.47,3.47,0,0,1,1.11-1.23,3,3,0,0,1,1.7-.46,2.7,2.7,0,0,1,2.6,1.51l.26-1.26h2.32v9.11a4.64,4.64,0,0,1-1.06,3.41A4.78,4.78,0,0,1,165.79,141.1Zm.12-5.89a1.5,1.5,0,0,0,1.3-.81,3.94,3.94,0,0,0,.51-2.1,3.89,3.89,0,0,0-.5-2.1,1.46,1.46,0,0,0-2.61,0,3.89,3.89,0,0,0-.51,2.1,4,4,0,0,0,.5,2.1A1.5,1.5,0,0,0,165.91,135.21Z"/><path class="cls-8" d="M176.74,139.75a21.34,21.34,0,0,1-1.18-1.94,13.59,13.59,0,0,1-.89-2.07,12.37,12.37,0,0,1-.68-4,12.24,12.24,0,0,1,.69-4,15.28,15.28,0,0,1,.83-1.94,17.83,17.83,0,0,1,1.23-2h2a21.3,21.3,0,0,0-1,2,18.33,18.33,0,0,0-.73,2,14.07,14.07,0,0,0,0,7.86,19.82,19.82,0,0,0,1.73,4.1Z"/><path class="cls-10" d="M187,126.07V123.7h2.76v2.37L188,129.44h-1.89Z"/><path class="cls-10" d="M194.38,124.25H197v5h3.25v-5h2.59v13.13h-2.59v-5.84H197v5.84h-2.59Z"/><path class="cls-10" d="M209.92,137.63a5.27,5.27,0,0,1-3.86-1.31,5.15,5.15,0,0,1-1.32-3.8,6.52,6.52,0,0,1,.54-2.75,4.06,4.06,0,0,1,1.63-1.82,5.15,5.15,0,0,1,2.72-.65,4.23,4.23,0,0,1,2.33.62,4.1,4.1,0,0,1,1.52,1.74,5.83,5.83,0,0,1,.55,2.58v1h-6.68c0,1.53.9,2.3,2.69,2.3a7,7,0,0,0,3.57-1.06v2.36A9.43,9.43,0,0,1,209.92,137.63Zm1.51-6.27a2.14,2.14,0,0,0-.5-1.55,1.87,1.87,0,0,0-1.43-.52,2,2,0,0,0-1.49.54,2.45,2.45,0,0,0-.63,1.53Z"/><path class="cls-10" d="M221.78,137.45a3.25,3.25,0,0,1-2.64-1,4.91,4.91,0,0,1-.8-3.14v-7.66h-2.61v-2h5.19v9.64a2.86,2.86,0,0,0,.36,1.64,1.41,1.41,0,0,0,1.22.49h2.05v2Z"/><path class="cls-10" d="M232.61,137.45a3.24,3.24,0,0,1-2.63-1,4.91,4.91,0,0,1-.8-3.14v-7.66h-2.61v-2h5.18v9.64a2.78,2.78,0,0,0,.37,1.64,1.4,1.4,0,0,0,1.21.49h2.06v2Z"/><path class="cls-10" d="M241.94,137.63a4.52,4.52,0,0,1-2.42-.63,4.12,4.12,0,0,1-1.58-1.79,7.1,7.1,0,0,1,0-5.48,4.19,4.19,0,0,1,1.6-1.8,4.57,4.57,0,0,1,2.44-.63,4.46,4.46,0,0,1,2.41.62,4,4,0,0,1,1.56,1.77,6.18,6.18,0,0,1,.55,2.73,6.44,6.44,0,0,1-.56,2.78,4.15,4.15,0,0,1-1.58,1.8A4.47,4.47,0,0,1,241.94,137.63Zm0-2.09a1.65,1.65,0,0,0,1.44-.83,5,5,0,0,0,0-4.5,1.68,1.68,0,0,0-2.89,0,4.94,4.94,0,0,0,0,4.49A1.66,1.66,0,0,0,242,135.54Z"/><path class="cls-10" d="M250.7,139.79l.12,0a4,4,0,0,0,1.48-1.06,2.66,2.66,0,0,0,.65-1.6h-.24a1.45,1.45,0,0,1-1-.38,1.24,1.24,0,0,1-.32-.43,1.5,1.5,0,0,1-.11-.64,1.42,1.42,0,0,1,.05-.42,2,2,0,0,1,.13-.37,1.11,1.11,0,0,1,.26-.29,1.79,1.79,0,0,1,.5-.3,1.92,1.92,0,0,1,.59-.09h.27l.24.06a1.14,1.14,0,0,1,.44.22,1.22,1.22,0,0,1,.34.37,3,3,0,0,1,.43,1.72,4.82,4.82,0,0,1-.21,1.44,5.36,5.36,0,0,1-.25.62,4.06,4.06,0,0,1-.38.61,4.13,4.13,0,0,1-1,1,6.39,6.39,0,0,1-1.33.68l-.12,0Z"/><path class="cls-10" d="M269,124.25h2.26l.94,9.64,1.14-6.23h2.15l1.32,6.23.74-9.64h2.28l-1.51,13.13h-2.42l-1.49-6.89-1.4,6.89h-2.4Z"/><path class="cls-10" d="M285.29,137.63a4.52,4.52,0,0,1-2.42-.63,4.06,4.06,0,0,1-1.58-1.79,7,7,0,0,1,0-5.48,4.11,4.11,0,0,1,1.59-1.8,4.63,4.63,0,0,1,2.45-.63,4.46,4.46,0,0,1,2.41.62,4.09,4.09,0,0,1,1.56,1.77,6.18,6.18,0,0,1,.55,2.73,6.44,6.44,0,0,1-.56,2.78,4.15,4.15,0,0,1-1.58,1.8A4.52,4.52,0,0,1,285.29,137.63Zm0-2.09a1.65,1.65,0,0,0,1.44-.83,5,5,0,0,0,0-4.5,1.64,1.64,0,0,0-1.44-.82,1.63,1.63,0,0,0-1.45.83,4.94,4.94,0,0,0,0,4.49A1.65,1.65,0,0,0,285.3,135.54Z"/><path class="cls-10" d="M292.83,127.53h2.32l.25,1.53a2.93,2.93,0,0,1,1.16-1.3,3.49,3.49,0,0,1,1.82-.46,4.1,4.1,0,0,1,2,.5v2.45a3.19,3.19,0,0,0-2.24-.77,3.07,3.07,0,0,0-1.81.5,2.21,2.21,0,0,0-.86,1.47,4,4,0,0,0-.06.56c0,.21,0,.49,0,.83v4.54h-2.57Z"/><path class="cls-10" d="M308.47,137.45a3.22,3.22,0,0,1-2.63-1,4.85,4.85,0,0,1-.8-3.14v-7.66h-2.61v-2h5.18v9.64A2.78,2.78,0,0,0,308,135a1.39,1.39,0,0,0,1.21.49h2.06v2Z"/><path class="cls-10" d="M316.72,137.63a3,3,0,0,1-2.61-1.37,6.7,6.7,0,0,1-.94-3.79,6.61,6.61,0,0,1,.95-3.8,3,3,0,0,1,2.61-1.37,2.91,2.91,0,0,1,2.61,1.63V123.7h2.56v13.68h-2.31l-.25-1.46A2.74,2.74,0,0,1,316.72,137.63Zm.81-2.11a1.45,1.45,0,0,0,1.31-.83,5.13,5.13,0,0,0,0-4.42,1.51,1.51,0,0,0-1.33-.83,1.44,1.44,0,0,0-1.29.8,5.37,5.37,0,0,0,0,4.44A1.45,1.45,0,0,0,317.53,135.52Z"/><path class="cls-10" d="M328.63,138a1.56,1.56,0,0,1-.62-.12,1.59,1.59,0,0,1-.47-.33,1.76,1.76,0,0,1,0-2.33l.12-.12.06-.05a1.37,1.37,0,0,1,.2-.13l.09,0,.13,0,.23-.06h.27a1.4,1.4,0,0,1,1.08.44,1.58,1.58,0,0,1,.44,1.17,2.37,2.37,0,0,1-.05.43,1.16,1.16,0,0,1-.15.4,1.12,1.12,0,0,1-.1.16.8.8,0,0,1-.14.17,1.62,1.62,0,0,1-.5.35l-.3.09Zm-1.28-9.88v-4h2.51v4l-.6,5.06H328Z"/><path class="cls-10" d="M338.72,126.07V123.7h2.76v2.37l-1.74,3.37h-1.89Z"/><path class="cls-8" d="M348.49,139.75a19.76,19.76,0,0,0,1.72-4.1,14.07,14.07,0,0,0,0-7.86,17.7,17.7,0,0,0-.71-2,20.76,20.76,0,0,0-1-2.08h2a16.4,16.4,0,0,1,2.08,4,12.07,12.07,0,0,1,.51,2,12.56,12.56,0,0,1,.16,2,12.35,12.35,0,0,1-.67,4,14.87,14.87,0,0,1-.87,2,17.18,17.18,0,0,1-1.21,2Z"/><path class="cls-8" d="M359,140.42l.13-.06a4.11,4.11,0,0,0,1.61-1.16,3,3,0,0,0,.62-1.64l-.11,0h-.09a1.86,1.86,0,0,1-.61-.1,1.23,1.23,0,0,1-.52-.3,1.41,1.41,0,0,1-.45-1.12,1.43,1.43,0,0,1,.47-1.13,2,2,0,0,1,.53-.31,2,2,0,0,1,1-.06,1.28,1.28,0,0,1,.37.14,1.33,1.33,0,0,1,.57.51,2.06,2.06,0,0,1,.34.79,4,4,0,0,1,.12,1,4.62,4.62,0,0,1-.87,2.8,5.24,5.24,0,0,1-2.47,1.76l-.12,0Zm2.07-9.15a1.55,1.55,0,0,1-1.14-.47,1.45,1.45,0,0,1-.36-.57,1.83,1.83,0,0,1-.11-.66,1.8,1.8,0,0,1,.13-.71,1.93,1.93,0,0,1,.33-.52,1.64,1.64,0,0,1,1.18-.46,1.62,1.62,0,0,1,1.15.46,1.87,1.87,0,0,1,.34.52,2,2,0,0,1,0,1.41,1.5,1.5,0,0,1-.86.87A1.59,1.59,0,0,1,361.08,131.27Z"/><path class="cls-11" d="M42.14,86V73.39h1.45v5.79A5,5,0,0,1,45.1,77.6,3.25,3.25,0,0,1,46.87,77a2.55,2.55,0,0,1,1.35.38,2.09,2.09,0,0,1,.86.92,2.92,2.92,0,0,1,.26.87,15.54,15.54,0,0,1,.07,1.92V86H48V80.94a7.17,7.17,0,0,0-.12-1.66,1.27,1.27,0,0,0-.45-.66,1.1,1.1,0,0,0-.7-.26,2.71,2.71,0,0,0-1.65.73,6,6,0,0,0-1.45,1.82V86Z"/><path class="cls-11" d="M57.4,85.42a7.71,7.71,0,0,1-3.3.82A3.9,3.9,0,0,1,52,85.65,4.1,4.1,0,0,1,50.51,84,5,5,0,0,1,50,81.65a5.09,5.09,0,0,1,.53-2.29A4.09,4.09,0,0,1,52,77.64,3.86,3.86,0,0,1,54.09,77a3.1,3.1,0,0,1,2.49,1.11,5.16,5.16,0,0,1,1,3.41v.31h-6a3.73,3.73,0,0,0,.38,1.67,2.57,2.57,0,0,0,2.4,1.5,6.51,6.51,0,0,0,3.11-.94Zm-5.8-4.64H56v-.21a2.58,2.58,0,0,0-.53-1.7A1.71,1.71,0,0,0,54,78.24a2.09,2.09,0,0,0-1.53.64A3.64,3.64,0,0,0,51.6,80.78Z"/><path class="cls-11" d="M60.49,86V74.6H57.88V73.39h4.06v11.4h2.73V86Z"/><path class="cls-11" d="M68.49,86V74.6H65.88V73.39h4.06v11.4h2.73V86Z"/><path class="cls-11" d="M77.74,86.24a3.77,3.77,0,0,1-3-1.31,5.42,5.42,0,0,1,0-6.6,4.1,4.1,0,0,1,6,0,5.42,5.42,0,0,1,0,6.6A3.76,3.76,0,0,1,77.74,86.24Zm0-1.21a2.2,2.2,0,0,0,1.85-.91,4.88,4.88,0,0,0,0-5,2.35,2.35,0,0,0-3.71,0,4.82,4.82,0,0,0,0,5A2.2,2.2,0,0,0,77.74,85Z"/><path class="cls-11" d="M85.73,86.36a1.22,1.22,0,0,1-.89-.37,1.26,1.26,0,0,1,0-1.8,1.27,1.27,0,0,1,1.79,0,1.27,1.27,0,0,1-.9,2.17Z"/><path class="cls-11" d="M97.45,85.65a9.32,9.32,0,0,1-1.49.51,5.45,5.45,0,0,1-.89.08,4,4,0,0,1-1.67-.35,2.41,2.41,0,0,1-1.14-1,4.48,4.48,0,0,1-.39-2.13V79.21H89.69V78h2.18V74.48h1.45V78H97.2v1.21H93.32V82.7a3.3,3.3,0,0,0,.25,1.49,1.59,1.59,0,0,0,.67.64,2.33,2.33,0,0,0,1,.2,4.45,4.45,0,0,0,2.22-.67Z"/><path class="cls-11" d="M98.25,85.54V84a5.81,5.81,0,0,0,1.85.8,7.76,7.76,0,0,0,1.66.23,2.72,2.72,0,0,0,1.59-.36,1.05,1.05,0,0,0,.48-.88.81.81,0,0,0-.23-.6,3.3,3.3,0,0,0-1.12-.62l-.5-.21L101,82a5.22,5.22,0,0,1-2-1.18,2,2,0,0,1-.43-1.29,2.21,2.21,0,0,1,.83-1.78A4.21,4.21,0,0,1,102,77a8.26,8.26,0,0,1,2.65.41v1.32a7.89,7.89,0,0,0-2.7-.52,2.81,2.81,0,0,0-1.45.32,1,1,0,0,0-.52.81.84.84,0,0,0,.45.75,7.91,7.91,0,0,0,1.46.65l1,.36a5,5,0,0,1,1.9,1.07,2,2,0,0,1,.55,1.45,2.33,2.33,0,0,1-.87,1.86,4.31,4.31,0,0,1-2.79.73A9.27,9.27,0,0,1,98.25,85.54Z"/><path class="cls-12" d="M21.09,84.88V77.49H18.36V75.76H25.9v1.73H23.17v7.39Z"/><path class="cls-12" d="M30.5,85.05a5.36,5.36,0,0,1-1.83-.33,5.18,5.18,0,0,1-1.64-1l1.19-1.42a4.82,4.82,0,0,0,1.13.69,3.17,3.17,0,0,0,1.29.26,1.67,1.67,0,0,0,1-.22.67.67,0,0,0,.31-.57.7.7,0,0,0-.1-.4.86.86,0,0,0-.28-.29,3.06,3.06,0,0,0-.45-.24l-.58-.25-1.18-.5a4.65,4.65,0,0,1-.74-.37,3.11,3.11,0,0,1-.62-.52,2.49,2.49,0,0,1-.43-.7,2.59,2.59,0,0,1-.16-.91,2.26,2.26,0,0,1,.25-1,2.71,2.71,0,0,1,.68-.87,3.29,3.29,0,0,1,1.06-.58,4.17,4.17,0,0,1,1.36-.21,4.51,4.51,0,0,1,3,1.2l-1.05,1.3a4.86,4.86,0,0,0-.95-.54,3.27,3.27,0,0,0-1.15-.18,1.49,1.49,0,0,0-.84.21.68.68,0,0,0-.31.61.7.7,0,0,0,.41.63,9.89,9.89,0,0,0,1.09.45l1.1.48a3.48,3.48,0,0,1,1.44.92A2.24,2.24,0,0,1,34,82.22a2.66,2.66,0,0,1-.23,1.09,2.58,2.58,0,0,1-.69.89,3.31,3.31,0,0,1-1.11.62A4.65,4.65,0,0,1,30.5,85.05Z"/><rect class="cls-11" x="148.96" y="74.13" width="10" height="1" transform="translate(-7.67 130.73) rotate(-45)"/><rect class="cls-11" x="148.96" y="74.13" width="10" height="1" transform="translate(97.86 -87.01) rotate(45)"/><path class="cls-8" d="M19.58,135.09h2.9v-8.16l-2,2.13-1.23-1.28,3.22-3.53H25v10.84h2.9v2.29H19.58Z"/></g></svg>